<?xml version="1.0" standalone="no"?><!DOCTYPE svg PUBLIC "-//W3C//DTD SVG 1.1//EN" "http://www.w3.org/Graphics/SVG/1.1/DTD/svg11.dtd"><svg height="1442" node-id="1" sillyvg="true" template-height="1442" template-width="1209" version="1.1" viewBox="0 0 1209 1442" width="1209" xmlns="http://www.w3.org/2000/svg" xmlns:xlink="http://www.w3.org/1999/xlink"><defs node-id="84"><linearGradient gradientUnits="userSpaceOnUse" id="paint0_linear_1718_18725" node-id="39" spreadMethod="pad" x1="730.174" x2="730.174" y1="336.35" y2="1197.62"><stop offset="0.02" stop-color="#bfd1ff"></stop><stop offset="1" stop-color="#ffffff"></stop></linearGradient><linearGradient gradientUnits="userSpaceOnUse" id="paint1_linear_1718_18725" node-id="42" spreadMethod="pad" x1="627.174" x2="627.174" y1="405.35" y2="1266.62"><stop offset="0.02" stop-color="#bfd1ff"></stop><stop offset="1" stop-color="#ffffff"></stop></linearGradient><linearGradient gradientUnits="userSpaceOnUse" id="paint2_linear_1718_18725" node-id="45" spreadMethod="pad" x1="539.146" x2="539.146" y1="500.505" y2="1221.33"><stop offset="0.02" stop-color="#2575f2"></stop><stop offset="1" stop-color="#6a11c1"></stop></linearGradient><linearGradient gradientUnits="userSpaceOnUse" id="paint3_linear_1718_18725" node-id="48" spreadMethod="pad" x1="168.022" x2="603.4" y1="539.289" y2="539.289"><stop offset="0" stop-color="#623fe9"></stop><stop offset="0.1676" stop-color="#6d49e8"></stop><stop offset="0.7004" stop-color="#8c65e5"></stop><stop offset="1" stop-color="#976fe4"></stop></linearGradient><linearGradient gradientUnits="userSpaceOnUse" id="paint4_linear_1718_18725" node-id="53" spreadMethod="pad" x1="169.87" x2="573.667" y1="333.915" y2="608.791"><stop offset="0" stop-color="#8b87ff"></stop><stop offset="1" stop-color="#f68bc6"></stop></linearGradient><linearGradient gradientUnits="userSpaceOnUse" id="paint5_linear_1718_18725" node-id="56" spreadMethod="pad" x1="161.425" x2="222.264" y1="490.089" y2="490.089"><stop offset="0" stop-color="#e967cd"></stop><stop offset="0.1594" stop-color="#eb6fc3"></stop><stop offset="0.4286" stop-color="#f086a9"></stop><stop offset="0.7724" stop-color="#f8aa7e"></stop><stop offset="1" stop-color="#fec55e"></stop></linearGradient><linearGradient gradientUnits="userSpaceOnUse" id="paint6_linear_1718_18725" node-id="62" spreadMethod="pad" x1="161.421" x2="229.128" y1="606.999" y2="628.785"><stop offset="0" stop-color="#8b87ff"></stop><stop offset="1" stop-color="#f68bc6"></stop></linearGradient><linearGradient gradientUnits="userSpaceOnUse" id="paint7_linear_1718_18725" node-id="65" spreadMethod="pad" x1="153.421" x2="221.128" y1="736.999" y2="758.785"><stop offset="0" stop-color="#8b87ff"></stop><stop offset="1" stop-color="#f68bc6"></stop></linearGradient><linearGradient gradientUnits="userSpaceOnUse" id="paint8_linear_1718_18725" node-id="68" spreadMethod="pad" x1="715.61" x2="977.416" y1="1353.79" y2="1188.92"><stop offset="0" stop-color="#9ccff7"></stop><stop offset="1" stop-color="#2e7feb"></stop></linearGradient><linearGradient gradientUnits="userSpaceOnUse" id="paint9_linear_1718_18725" node-id="71" spreadMethod="pad" x1="757.073" x2="835.741" y1="777.045" y2="777.045"><stop offset="0" stop-color="#e967cd"></stop><stop offset="0.1594" stop-color="#eb6fc3"></stop><stop offset="0.4286" stop-color="#f086a9"></stop><stop offset="0.7724" stop-color="#f8aa7e"></stop><stop offset="1" stop-color="#fec55e"></stop></linearGradient><linearGradient gradientUnits="userSpaceOnUse" id="paint10_linear_1718_18725" node-id="77" spreadMethod="pad" x1="760.736" x2="781.953" y1="623.159" y2="656.936"><stop offset="0.02" stop-color="#2575f2"></stop><stop offset="1" stop-color="#6a11c1"></stop></linearGradient><linearGradient gradientUnits="userSpaceOnUse" id="paint11_linear_1718_18725" node-id="80" spreadMethod="pad" x1="861.628" x2="109.549" y1="536.144" y2="111.136"><stop offset="0.02" stop-color="#2575f2"></stop><stop offset="1" stop-color="#6a11c1"></stop></linearGradient></defs><path d="M 299.29 3.16 C 286.60 -4.17 276.33 1.68 276.33 16.28 L 276.33 672.85 C 276.33 678.45 280.27 685.27 285.18 688.15 L 1175.18 1201.94 C 1180.05 1204.76 1184.00 1202.48 1184.00 1196.88 L 1184.00 540.31 C 1184.00 525.72 1173.72 507.98 1160.99 500.64 L 299.29 3.16 Z" fill="url(#paint0_linear_1718_18725)" fill-opacity="0.6" fill-rule="nonzero" node-id="175" stroke="none" target-height="1208.93" target-width="907.67004" target-x="276.33" target-y="-4.17"></path><path d="M 196.29 72.16 C 183.60 64.83 173.33 70.68 173.33 85.28 L 173.33 741.85 C 173.33 747.45 177.27 754.27 182.18 757.15 L 1072.18 1270.94 C 1077.05 1273.76 1081.00 1271.48 1081.00 1265.88 L 1081.00 609.31 C 1081.00 594.72 1070.72 576.98 1057.99 569.64 L 196.29 72.16 Z" fill="url(#paint1_linear_1718_18725)" fill-opacity="0.8" fill-rule="nonzero" node-id="177" stroke="none" target-height="1208.93" target-width="907.67" target-x="173.33" target-y="64.83"></path><path d="M 648.78 485.09 L 121.29 180.51 C 108.60 173.18 72.28 182.85 72.28 197.45 L 70.28 856.20 C 70.28 861.79 74.22 868.61 79.13 871.50 L 973.10 1390.91 C 977.99 1393.73 1006.00 1379.90 1006.00 1374.31 L 1006.00 717.69 C 1006.00 703.10 995.72 685.36 983.05 678.02 L 648.78 485.09 Z" fill="url(#paint2_linear_1718_18725)" fill-rule="nonzero" node-id="179" stroke="none" target-height="1220.55" target-width="935.72" target-x="70.28" target-y="173.18"></path><g node-id="253"><path d="M 976.89 1005.46 L 976.89 727.35 C 976.89 712.75 966.61 695.01 953.94 687.66 L 92.23 190.16 C 79.54 182.84 69.28 188.67 69.28 203.27 L 69.28 859.85 C 69.28 865.44 73.21 872.27 78.12 875.15 L 968.18 1389.03 C 973.05 1391.84 977.00 1389.56 977.00 1383.97 L 977.00 1088.30" fill="#ffffff" fill-opacity="0.4" fill-rule="nonzero" group-id="1" node-id="183" stroke="none" target-height="1209" target-width="907.72" target-x="69.28" target-y="182.84"></path></g><path d="M 612.54 1131.85 L 125.37 862.58 C 114.13 856.08 105.00 838.66 105.00 823.66 L 105.00 274.85 C 105.00 259.84 114.13 252.95 125.37 259.44 L 612.54 528.73 C 623.78 535.23 632.91 552.66 632.91 567.66 L 632.91 1116.47 C 632.91 1131.45 623.78 1138.35 612.54 1131.85 Z" fill="#ffffff" fill-rule="nonzero" node-id="186" stroke="none" target-height="885.39996" target-width="527.91" target-x="105" target-y="252.95"></path><path d="M 168.07 332.91 L 168.07 485.95 C 168.07 492.63 172.93 500.52 178.40 503.56 L 592.58 747.69 L 599.26 744.05 C 601.69 742.84 603.51 739.80 603.51 736.76 L 603.51 588.58 C 603.51 581.90 598.65 574.00 593.19 570.97 L 181.43 332.30 C 177.18 330.48 172.32 330.48 168.07 332.91 Z" fill="url(#paint3_linear_1718_18725)" fill-opacity="0.5" fill-rule="nonzero" node-id="188" stroke="none" target-height="417.21" target-width="435.44" target-x="168.07" target-y="330.48"></path><path d="M 137.32 365.12 C 131.86 362.08 127.00 364.51 127.00 371.19 L 127.00 519.98 C 127.00 526.66 131.86 534.56 137.32 537.59 L 552.11 777.48 C 557.58 780.51 562.44 778.09 562.44 771.40 L 562.44 622.62 C 562.44 615.94 557.58 608.04 552.11 605.00 L 137.32 365.12 Z" fill="url(#paint4_linear_1718_18725)" fill-rule="nonzero" node-id="190" stroke="none" target-height="418.43002" target-width="435.44" target-x="127" target-y="362.08"></path><path d="M 236.92 473.12 C 236.92 468.87 241.54 466.23 245.20 468.39 L 536.17 639.92 C 537.77 640.87 538.75 642.58 538.75 644.44 L 538.75 644.44 C 538.75 648.49 534.35 651.01 530.86 648.95 L 239.63 477.85 C 237.95 476.86 236.92 475.06 236.92 473.12 L 236.92 473.12 Z" fill="#ffffff" fill-rule="nonzero" node-id="192" stroke="none" target-height="184.78" target-width="301.83002" target-x="236.92" target-y="466.23"></path><path d="M 236.92 510.31 C 236.92 506.26 241.32 503.75 244.81 505.81 L 536.30 677.65 C 537.82 678.55 538.75 680.18 538.75 681.94 L 538.75 681.94 C 538.75 685.79 534.57 688.18 531.25 686.23 L 239.50 514.82 C 237.90 513.88 236.92 512.16 236.92 510.31 L 236.92 510.31 Z" fill="#ffffff" fill-rule="nonzero" node-id="194" stroke="none" target-height="184.43" target-width="301.83002" target-x="236.92" target-y="503.75"></path><path d="M 236.92 547.81 C 236.92 543.57 241.54 540.93 245.20 543.09 L 375.24 619.88 C 376.84 620.82 377.82 622.54 377.82 624.39 L 377.82 624.39 C 377.82 628.45 373.42 630.97 369.92 628.92 L 239.63 552.54 C 237.95 551.56 236.92 549.76 236.92 547.81 L 236.92 547.81 Z" fill="#ffffff" fill-rule="nonzero" node-id="196" stroke="none" target-height="90.03998" target-width="140.90001" target-x="236.92" target-y="540.93"></path><path d="M 205.95 483.54 C 208.99 481.12 210.81 476.86 210.81 471.40 C 210.81 458.64 201.70 442.25 190.16 436.18 C 179.23 429.49 169.51 434.96 169.51 447.71 C 169.51 456.82 173.76 466.54 179.84 474.44 C 168.90 479.90 161.01 490.83 161.01 504.19 L 161.01 512.09 L 221.74 547.92 L 221.74 530.91 C 222.35 513.30 216.27 496.90 205.95 483.54 Z" fill="url(#paint5_linear_1718_18725)" fill-rule="nonzero" node-id="198" stroke="none" target-height="118.42999" target-width="61.34001" target-x="161.01" target-y="429.49"></path><path d="M 241.78 666.07 C 241.78 662.22 245.96 659.82 249.28 661.78 L 512.89 817.19 C 514.34 818.04 515.23 819.60 515.23 821.28 L 515.23 821.28 C 515.23 824.95 511.24 827.23 508.08 825.37 L 244.23 670.35 C 242.71 669.46 241.78 667.83 241.78 666.07 L 241.78 666.07 Z" fill="#dfe6fd" fill-rule="nonzero" node-id="200" stroke="none" target-height="167.40997" target-width="273.44998" target-x="241.78" target-y="659.82"></path><path d="M 241.78 699.76 C 241.78 696.10 245.76 693.82 248.92 695.68 L 513.01 851.37 C 514.38 852.18 515.23 853.66 515.23 855.26 L 515.23 855.26 C 515.23 858.74 511.44 860.91 508.44 859.14 L 244.11 703.85 C 242.66 703.00 241.78 701.44 241.78 699.76 L 241.78 699.76 Z" fill="#dfe6fd" fill-rule="nonzero" node-id="202" stroke="none" target-height="167.08997" target-width="273.44998" target-x="241.78" target-y="693.82"></path><path d="M 241.78 733.74 C 241.78 729.89 245.96 727.50 249.27 729.46 L 367.09 799.03 C 368.54 799.88 369.42 801.44 369.42 803.12 L 369.42 803.12 C 369.42 806.79 365.44 809.08 362.27 807.22 L 244.23 738.03 C 242.71 737.13 241.78 735.50 241.78 733.74 L 241.78 733.74 Z" fill="#dfe6fd" fill-rule="nonzero" node-id="204" stroke="none" target-height="81.58002" target-width="127.640015" target-x="241.78" target-y="727.5"></path><path d="M 196.72 660.51 C 199.47 658.31 201.12 654.46 201.12 649.51 C 201.12 637.95 192.86 623.10 182.41 617.60 C 172.51 611.54 163.70 616.50 163.70 628.05 C 163.70 636.30 167.55 645.11 173.06 652.26 C 163.15 657.21 156.00 667.12 156.00 679.22 L 156.00 686.37 L 211.02 718.83 L 211.02 703.43 C 211.57 687.47 206.07 672.62 196.72 660.51 Z" fill="url(#paint6_linear_1718_18725)" fill-rule="nonzero" node-id="206" stroke="none" target-height="107.29004" target-width="55.570007" target-x="156" target-y="611.54"></path><path d="M 229.78 796.07 C 229.78 792.22 233.96 789.82 237.28 791.78 L 500.89 947.19 C 502.34 948.04 503.23 949.60 503.23 951.28 L 503.23 951.28 C 503.23 954.95 499.24 957.23 496.08 955.37 L 232.23 800.35 C 230.71 799.46 229.78 797.83 229.78 796.07 L 229.78 796.07 Z" fill="#dfe6fd" fill-rule="nonzero" node-id="208" stroke="none" target-height="167.40997" target-width="273.45" target-x="229.78" target-y="789.82"></path><path d="M 229.78 829.76 C 229.78 826.10 233.76 823.82 236.92 825.68 L 501.01 981.37 C 502.38 982.18 503.23 983.66 503.23 985.26 L 503.23 985.26 C 503.23 988.74 499.44 990.91 496.44 989.14 L 232.11 833.85 C 230.66 833.00 229.78 831.44 229.78 829.76 L 229.78 829.76 Z" fill="#dfe6fd" fill-rule="nonzero" node-id="210" stroke="none" target-height="167.08997" target-width="273.45" target-x="229.78" target-y="823.82"></path><path d="M 229.78 863.74 C 229.78 859.89 233.96 857.50 237.27 859.46 L 355.09 929.03 C 356.54 929.88 357.42 931.44 357.42 933.12 L 357.42 933.12 C 357.42 936.79 353.44 939.08 350.27 937.22 L 232.23 868.03 C 230.71 867.13 229.78 865.50 229.78 863.74 L 229.78 863.74 Z" fill="#dfe6fd" fill-rule="nonzero" node-id="212" stroke="none" target-height="81.58002" target-width="127.640015" target-x="229.78" target-y="857.5"></path><path d="M 188.72 790.51 C 191.47 788.31 193.12 784.46 193.12 779.51 C 193.12 767.95 184.86 753.10 174.41 747.60 C 164.51 741.54 155.70 746.50 155.70 758.05 C 155.70 766.30 159.55 775.11 165.06 782.26 C 155.15 787.21 148.00 797.12 148.00 809.22 L 148.00 816.37 L 203.02 848.83 L 203.02 833.43 C 203.57 817.47 198.07 802.62 188.72 790.51 Z" fill="url(#paint7_linear_1718_18725)" fill-rule="nonzero" node-id="214" stroke="none" target-height="107.29004" target-width="55.570007" target-x="148" target-y="741.54"></path><path d="M 916.54 1306.85 L 676.37 1167.58 C 665.13 1161.08 656.00 1143.66 656.00 1128.66 L 656.00 897.85 C 656.00 882.84 665.13 875.95 676.37 882.45 L 916.54 1021.73 C 927.78 1028.22 936.91 1045.66 936.91 1060.66 L 936.91 1291.47 C 936.91 1306.45 927.78 1313.35 916.54 1306.85 Z" fill="url(#paint8_linear_1718_18725)" fill-opacity="0.65" fill-rule="nonzero" group-id="2" node-id="218" stroke="none" target-height="437.39996" target-width="280.90997" target-x="656" target-y="875.95"></path><path d="M 837.10 1188.93 C 837.10 1193.31 832.37 1196.06 828.57 1193.88 L 720.07 1131.89 C 718.17 1130.80 717.00 1128.78 717.00 1126.59 L 717.00 1126.59 C 717.00 1121.89 722.09 1118.95 726.16 1121.31 L 834.26 1183.99 C 836.02 1185.01 837.10 1186.89 837.10 1188.93 L 837.10 1188.93 Z" fill="#dfe6fd" fill-rule="nonzero" node-id="221" stroke="none" target-height="77.11011" target-width="120.099976" target-x="717" target-y="1118.95"></path><path d="M 804.60 1202.66 C 804.60 1207.03 799.88 1209.78 796.08 1207.61 L 741.88 1176.76 C 740.10 1175.75 739.00 1173.85 739.00 1171.81 L 739.00 1171.81 C 739.00 1167.43 743.72 1164.69 747.52 1166.85 L 801.72 1197.70 C 803.50 1198.72 804.60 1200.61 804.60 1202.66 L 804.60 1202.66 Z" fill="#dfe6fd" fill-rule="nonzero" node-id="223" stroke="none" target-height="45.090088" target-width="65.599976" target-x="739" target-y="1164.69"></path><path d="M 714.00 1061.00 L 749.45 1081.23 L 749.45 1111.67 L 714.00 1091.44 L 714.00 1061.00 Z" fill="#ffffff" fill-rule="nonzero" node-id="225" stroke="none" target-height="50.670044" target-width="35.450012" target-x="714" target-y="1061"></path><path d="M 770.00 1093.00 L 805.45 1113.23 L 805.45 1143.67 L 770.00 1123.44 L 770.00 1093.00 Z" fill="#ffffff" fill-rule="nonzero" node-id="227" stroke="none" target-height="50.670044" target-width="35.450012" target-x="770" target-y="1093"></path><path d="M 822.91 1123.89 L 858.36 1144.13 L 858.36 1174.56 L 822.91 1154.33 L 822.91 1123.89 Z" fill="#ffffff" fill-rule="nonzero" node-id="229" stroke="none" target-height="50.670044" target-width="35.450012" target-x="822.91" target-y="1123.89"></path><path d="M 806.72 1034.51 C 809.47 1032.31 811.12 1028.46 811.12 1023.51 C 811.12 1011.95 802.86 997.10 792.41 991.60 C 782.51 985.54 773.70 990.50 773.70 1002.05 C 773.70 1010.30 777.55 1019.11 783.06 1026.26 C 773.15 1031.21 766.00 1041.12 766.00 1053.22 L 766.00 1060.37 L 821.02 1092.83 L 821.02 1077.43 C 821.57 1061.47 816.07 1046.62 806.72 1034.51 Z" fill="#ffffff" fill-rule="nonzero" node-id="231" stroke="none" target-height="107.28998" target-width="55.570007" target-x="766" target-y="985.54"></path><path d="M 916.54 990.85 L 676.37 851.58 C 665.13 845.08 656.00 827.66 656.00 812.66 L 656.00 581.85 C 656.00 566.84 665.13 559.95 676.37 566.45 L 916.54 705.73 C 927.78 712.23 936.91 729.66 936.91 744.66 L 936.91 975.47 C 936.91 990.45 927.78 997.35 916.54 990.85 Z" fill="#ffffff" fill-rule="nonzero" node-id="233" stroke="none" target-height="437.39996" target-width="280.90997" target-x="656" target-y="559.95"></path><path d="M 830.22 815.78 L 771.84 821.72 C 764.91 822.71 757.00 813.80 757.00 805.89 L 757.00 738.61 C 757.00 730.70 765.90 729.71 771.84 736.63 L 830.22 797.97 C 837.14 805.89 837.14 814.79 830.22 815.78 L 771.84 821.72 C 764.91 822.71 757.00 813.80 757.00 805.89 L 757.00 738.61 C 757.00 730.70 765.90 729.71 771.84 736.63 L 830.22 797.97 C 837.14 805.89 837.14 814.79 830.22 815.78 Z" fill="url(#paint9_linear_1718_18725)" fill-rule="nonzero" node-id="235" stroke="none" target-height="93" target-width="80.140015" target-x="757" target-y="729.71"></path><path d="M 680.00 621.51 C 680.00 613.77 688.42 608.97 695.08 612.90 L 809.20 680.27 C 812.25 682.07 814.12 685.34 814.12 688.88 L 814.12 702.19 C 814.12 709.88 805.79 714.69 799.13 710.85 L 685.01 645.07 C 681.91 643.29 680.00 639.98 680.00 636.41 L 680.00 621.51 Z" fill="url(#paint10_linear_1718_18725)" fill-rule="nonzero" node-id="237" stroke="none" target-height="105.72003" target-width="134.12" target-x="680" target-y="608.97"></path><path d="M 1001.48 648.03 L 90.65 119.18 C 80.91 113.54 73.00 98.46 73.00 85.45 C 73.00 72.46 80.91 66.49 90.65 72.12 L 1001.48 600.97 C 1011.23 606.61 1019.12 621.69 1019.12 634.68 C 1019.12 647.69 1011.21 653.65 1001.48 648.03 Z" fill="url(#paint11_linear_1718_18725)" fill-rule="nonzero" node-id="239" stroke="none" target-height="587.16003" target-width="946.12" target-x="73" target-y="66.49"></path><path d="M 100.75 108.04 C 98.69 103.22 99.24 98.37 101.97 97.21 C 104.69 96.05 108.57 99.01 110.62 103.83 C 112.67 108.66 112.12 113.50 109.40 114.67 C 106.67 115.83 102.80 112.86 100.75 108.04 Z" fill="#ffffff" fill-rule="nonzero" node-id="241" stroke="none" target-height="19.779999" target-width="13.979996" target-x="98.69" target-y="96.05"></path><path d="M 121.92 120.26 C 119.87 115.44 120.42 110.59 123.14 109.43 C 125.87 108.27 129.75 111.24 131.80 116.06 C 133.85 120.88 133.30 125.73 130.57 126.89 C 127.85 128.05 123.97 125.08 121.92 120.26 Z" fill="#ffffff" fill-rule="nonzero" node-id="243" stroke="none" target-height="19.780006" target-width="13.980003" target-x="119.87" target-y="108.27"></path><path d="M 143.10 132.49 C 141.05 127.67 141.60 122.82 144.33 121.66 C 147.05 120.50 150.93 123.47 152.98 128.29 C 155.03 133.11 154.48 137.96 151.76 139.12 C 149.03 140.28 145.16 137.31 143.10 132.49 Z" fill="#ffffff" fill-rule="nonzero" node-id="245" stroke="none" target-height="19.779999" target-width="13.979996" target-x="141.05" target-y="120.5"></path><path d="M 817.40 525.76 L 223.81 182.45 C 220.40 180.49 217.64 175.20 217.64 170.66 C 217.64 166.11 220.40 164.02 223.81 165.98 L 817.40 509.29 C 820.81 511.25 823.57 516.54 823.57 521.09 C 823.62 525.63 820.86 527.72 817.40 525.76 Z" fill="#ffffff" fill-rule="nonzero" node-id="247" stroke="none" target-height="363.69995" target-width="605.98" target-x="217.64" target-y="164.02"></path><path d="M 916.93 581.54 L 885.17 563.21 C 881.77 561.23 879.00 555.96 879.00 551.41 C 879.00 546.86 881.77 544.78 885.17 546.74 L 916.93 565.07 C 920.35 567.05 923.12 572.33 923.12 576.87 C 923.12 581.43 920.35 583.52 916.93 581.54 Z" fill="#ffffff" fill-rule="nonzero" node-id="249" stroke="none" target-height="38.73999" target-width="44.119995" target-x="879" target-y="544.78"></path><path d="M 974.28 614.65 L 942.53 596.32 C 939.13 594.34 936.36 589.06 936.36 584.52 C 936.36 579.96 939.13 577.88 942.53 579.85 L 974.29 598.18 C 977.71 600.16 980.48 605.43 980.48 609.98 C 980.47 614.53 977.69 616.59 974.28 614.65 Z" fill="#ffffff" fill-rule="nonzero" node-id="251" stroke="none" target-height="38.710022" target-width="44.119995" target-x="936.36" target-y="577.88"></path></svg>