<?xml version="1.0" standalone="no"?><!DOCTYPE svg PUBLIC "-//W3C//DTD SVG 1.1//EN" "http://www.w3.org/Graphics/SVG/1.1/DTD/svg11.dtd"><svg height="1274" node-id="1" sillyvg="true" template-height="1274" template-width="1326" version="1.1" viewBox="0 0 1326 1274" width="1326" xmlns="http://www.w3.org/2000/svg" xmlns:xlink="http://www.w3.org/1999/xlink"><defs node-id="69"><linearGradient gradientUnits="userSpaceOnUse" id="paint0_linear_1707_18860" node-id="30" spreadMethod="pad" x1="387.879" x2="387.879" y1="331.053" y2="1020"><stop offset="0.02" stop-color="#bfd1ff"></stop><stop offset="1" stop-color="#ffffff"></stop></linearGradient><linearGradient gradientUnits="userSpaceOnUse" id="paint1_linear_1707_18860" node-id="33" spreadMethod="pad" x1="503.879" x2="503.879" y1="365.824" y2="937.614"><stop offset="0.02" stop-color="#2575f2"></stop><stop offset="1" stop-color="#6a11c1"></stop></linearGradient><linearGradient gradientUnits="userSpaceOnUse" id="paint2_linear_1707_18860" node-id="36" spreadMethod="pad" x1="623.393" x2="623.393" y1="465.836" y2="1106.82"><stop offset="0.02" stop-color="#bfd1ff"></stop><stop offset="1" stop-color="#ffffff"></stop></linearGradient><linearGradient gradientUnits="userSpaceOnUse" id="paint3_linear_1707_18860" node-id="39" spreadMethod="pad" x1="946.212" x2="151.37" y1="1034.66" y2="826.126"><stop offset="0.02" stop-color="#2575f2"></stop><stop offset="1" stop-color="#b881ff"></stop></linearGradient><linearGradient gradientUnits="userSpaceOnUse" id="paint4_linear_1707_18860" node-id="42" spreadMethod="pad" x1="309.443" x2="1018.2" y1="1130.61" y2="469.609"><stop offset="0" stop-color="#f78cc7"></stop><stop offset="1" stop-color="#af83ff"></stop></linearGradient><linearGradient gradientUnits="userSpaceOnUse" id="paint5_linear_1707_18860" node-id="45" spreadMethod="pad" x1="980.332" x2="980.332" y1="405.409" y2="852.131"><stop offset="0" stop-color="#a278de"></stop><stop offset="1" stop-color="#80a8f6"></stop></linearGradient><linearGradient gradientUnits="userSpaceOnUse" id="paint6_linear_1707_18860" node-id="48" spreadMethod="pad" x1="804.388" x2="1398.65" y1="408.441" y2="573.112"><stop offset="0.02" stop-color="#2575f2"></stop><stop offset="1" stop-color="#b881ff"></stop></linearGradient><linearGradient gradientUnits="userSpaceOnUse" id="paint7_linear_1707_18860" node-id="51" spreadMethod="pad" x1="880.784" x2="984.859" y1="772.174" y2="800.079"><stop offset="0.02" stop-color="#ffffff"></stop><stop offset="1" stop-color="#b881ff"></stop></linearGradient><linearGradient gradientUnits="userSpaceOnUse" id="paint8_linear_1707_18860" node-id="54" spreadMethod="pad" x1="832.644" x2="989.868" y1="676.106" y2="728.857"><stop offset="0.02" stop-color="#e18ad8"></stop><stop offset="1" stop-color="#b881ff"></stop></linearGradient><linearGradient gradientUnits="userSpaceOnUse" id="paint9_linear_1707_18860" node-id="57" spreadMethod="pad" x1="911.591" x2="329.017" y1="401.927" y2="370.494"><stop offset="0.02" stop-color="#2575f2"></stop><stop offset="1" stop-color="#6a11c1"></stop></linearGradient><linearGradient gradientUnits="userSpaceOnUse" id="paint10_linear_1707_18860" node-id="60" spreadMethod="pad" x1="394.795" x2="111.009" y1="784.394" y2="784.394"><stop offset="0" stop-color="#623fe9"></stop><stop offset="0.1676" stop-color="#6d49e8"></stop><stop offset="0.7004" stop-color="#8c65e5"></stop><stop offset="1" stop-color="#976fe4"></stop></linearGradient><linearGradient gradientUnits="userSpaceOnUse" id="paint11_linear_1707_18860" node-id="65" spreadMethod="pad" x1="416.435" x2="107.61" y1="935.532" y2="837.765"><stop offset="0.02" stop-color="#2575f2"></stop><stop offset="1" stop-color="#b881ff"></stop></linearGradient></defs><path d="M 32.00 483.99 C 32.00 468.64 42.83 450.59 55.47 443.37 L 720.28 65.16 C 732.91 57.94 743.75 63.36 743.75 78.70 L 743.75 602.44 C 743.75 617.78 732.91 635.84 720.28 643.06 L 55.47 1021.26 C 42.83 1028.49 32.00 1023.07 32.00 1007.73 L 32.00 483.99 Z" fill="url(#paint0_linear_1707_18860)" fill-opacity="0.6" fill-rule="nonzero" node-id="148" stroke="none" target-height="970.55" target-width="711.75" target-x="32" target-y="57.94"></path><path d="M 148.00 531.99 C 148.00 516.64 158.83 498.59 171.47 491.37 L 836.28 113.16 C 848.91 105.94 859.75 111.36 859.75 126.70 L 859.75 650.44 C 859.75 665.78 848.91 683.84 836.28 691.06 L 171.47 1069.26 C 158.83 1076.49 148.00 1071.07 148.00 1055.73 L 148.00 531.99 Z" fill="url(#paint1_linear_1707_18860)" fill-rule="nonzero" node-id="150" stroke="none" target-height="970.55" target-width="711.75" target-x="148" target-y="105.94"></path><path d="M 274.51 637.50 C 274.51 622.16 285.35 604.10 297.98 596.88 L 948.79 218.67 C 961.43 211.45 972.26 216.87 972.26 232.21 L 972.26 685.95 C 972.26 701.30 961.43 719.35 948.79 726.57 L 297.98 1107.78 C 285.35 1115.00 274.51 1109.58 274.51 1094.24 L 274.51 637.50 Z" fill="url(#paint2_linear_1707_18860)" fill-rule="nonzero" node-id="152" stroke="none" target-height="903.55" target-width="697.75" target-x="274.51" target-y="211.45"></path><path d="M 271.00 596.99 C 271.00 581.64 281.83 563.59 294.47 556.37 L 951.28 178.16 C 963.91 170.94 974.75 176.36 974.75 191.70 L 974.75 686.44 C 974.75 701.78 963.91 719.84 951.28 727.06 L 294.47 1105.26 C 281.83 1112.49 271.00 1107.07 271.00 1091.73 L 271.00 596.99 Z" fill="url(#paint3_linear_1707_18860)" fill-opacity="0.5" fill-rule="nonzero" node-id="154" stroke="none" target-height="941.55" target-width="703.75" target-x="271" target-y="170.94"></path><path d="M 946.34 330.47 C 946.34 324.43 939.85 320.62 934.57 323.55 L 856.52 367.02 C 854.02 368.42 852.48 371.05 852.48 373.91 L 852.48 373.91 C 852.48 379.92 858.93 383.72 864.19 380.80 L 942.27 337.38 C 944.78 335.99 946.34 333.34 946.34 330.47 L 946.34 330.47 Z" fill="#e5ecff" fill-rule="nonzero" node-id="156" stroke="none" target-height="63.100006" target-width="93.86005" target-x="852.48" target-y="320.62"></path><path d="M 946.34 365.48 C 946.34 361.76 942.33 359.41 939.08 361.24 L 583.48 561.15 C 581.95 562.02 581.00 563.64 581.00 565.40 L 581.00 565.40 C 581.00 569.12 585.01 571.47 588.25 569.64 L 943.86 369.73 C 945.39 368.87 946.34 367.24 946.34 365.48 L 946.34 365.48 Z" fill="#e5ecff" fill-rule="nonzero" node-id="158" stroke="none" target-height="212.05997" target-width="365.34003" target-x="581" target-y="359.41"></path><path d="M 946.34 400.60 C 946.34 396.91 942.37 394.57 939.14 396.37 L 739.66 507.20 C 738.11 508.06 737.15 509.69 737.15 511.46 L 737.15 511.46 C 737.15 515.19 741.15 517.54 744.40 515.73 L 943.85 404.84 C 945.39 403.98 946.34 402.36 946.34 400.60 L 946.34 400.60 Z" fill="#e5ecff" fill-rule="nonzero" node-id="160" stroke="none" target-height="122.96997" target-width="209.19" target-x="737.15" target-y="394.57"></path><path d="M 975.19 689.73 L 975.19 435.00 C 959.51 463.01 939.34 483.17 904.62 488.77 C 877.50 493.14 858.00 507.17 851.40 513.42 C 809.95 552.62 802.11 610.88 777.46 659.04 C 761.78 689.29 734.89 719.54 699.05 724.02 C 663.20 728.50 629.59 706.09 594.87 704.97 C 559.02 703.85 526.53 719.54 503.01 747.54 C 469.40 786.75 475.00 832.68 458.20 878.61 C 432.43 949.18 360.74 916.70 304.73 927.90 C 291.29 930.14 280.08 936.86 270.00 946.94 L 270.00 1109.37 C 270.00 1119.46 281.20 1126.18 290.17 1120.58 L 956.15 724.46 C 968.47 716.61 975.19 704.29 975.19 689.73 Z" fill="url(#paint4_linear_1707_18860)" fill-rule="nonzero" node-id="162" stroke="none" target-height="691.18005" target-width="705.19" target-x="270" target-y="435"></path><g node-id="205"><path d="M 727.59 977.96 C 720.92 981.66 715.00 978.70 715.00 970.55 L 715.00 631.48 C 715.00 623.34 720.92 613.71 727.59 610.01 L 1233.23 317.58 C 1239.90 313.87 1245.82 316.83 1245.82 324.98 L 1245.82 664.05 C 1245.82 672.20 1239.90 681.82 1233.23 685.52 L 727.59 977.96 Z" fill="url(#paint5_linear_1707_18860)" fill-opacity="0.6" fill-rule="nonzero" group-id="1" node-id="166" stroke="none" target-height="667.79" target-width="530.81995" target-x="715" target-y="313.87"></path></g><path d="M 782.14 1019.18 L 782.14 674.92 C 782.14 666.78 788.07 657.15 794.73 653.45 L 1299.64 355.84 L 1307.78 360.28 C 1310.74 361.76 1312.96 365.46 1312.96 369.16 L 1312.96 707.50 C 1312.96 715.64 1307.04 725.26 1300.38 728.97 L 798.43 1019.92 C 793.25 1022.14 786.59 1022.14 782.14 1019.18 Z" fill="url(#paint6_linear_1707_18860)" fill-rule="nonzero" node-id="169" stroke="none" target-height="666.30005" target-width="530.81995" target-x="782.14" target-y="355.84"></path><path d="M 858.40 814.52 L 827.30 814.52 C 827.30 828.59 829.52 840.43 833.23 850.79 C 837.67 861.90 843.59 870.78 851.73 876.71 C 859.88 882.63 869.50 884.85 879.13 884.11 L 876.16 846.35 C 872.46 847.09 869.50 846.35 867.28 844.13 C 865.06 842.65 862.84 839.69 861.36 835.25 C 859.88 830.07 858.40 822.66 858.40 814.52 Z" fill="#ffffff" fill-rule="nonzero" node-id="171" stroke="none" target-height="70.329956" target-width="51.830017" target-x="827.3" target-y="814.52"></path><path d="M 938.35 762.70 C 936.13 773.06 932.43 783.42 927.25 793.05 C 922.81 802.67 916.88 812.30 910.96 819.70 C 905.04 827.85 898.38 833.77 892.45 838.21 C 886.53 841.91 881.35 844.87 876.91 844.87 L 879.87 882.63 C 889.49 881.89 899.12 877.45 908.74 870.78 C 917.62 864.12 926.51 855.98 934.65 844.87 C 942.05 834.51 949.46 823.40 955.38 810.82 C 961.30 798.23 965.75 785.65 969.45 772.32 L 938.35 762.70 Z" fill="url(#paint7_linear_1707_18860)" fill-rule="nonzero" node-id="173" stroke="none" target-height="119.92999" target-width="92.54004" target-x="876.91" target-y="762.7"></path><path d="M 925.77 664.23 C 924.29 664.23 922.81 664.23 921.33 664.23 C 911.70 664.97 902.08 669.41 892.45 676.08 C 883.57 682.74 874.68 690.88 866.54 701.99 C 859.14 712.35 851.73 723.46 845.81 736.04 C 839.89 748.63 835.45 761.21 831.75 774.54 C 828.04 788.61 826.56 801.93 826.56 814.52 L 857.66 814.52 C 857.66 805.63 859.14 795.27 861.36 784.90 C 863.58 774.54 867.28 764.17 872.46 754.55 C 876.91 744.93 882.83 735.30 888.75 727.90 C 894.67 719.75 901.34 713.83 907.26 709.39 C 913.18 705.69 918.37 702.73 922.81 702.73 C 926.51 701.99 929.47 702.73 931.69 704.95 C 933.91 706.43 936.13 709.39 937.61 713.83 C 939.84 719.01 940.58 726.42 940.58 733.82 C 940.58 742.71 939.09 753.07 936.87 763.43 L 966.49 774.54 C 970.19 760.47 971.67 747.15 971.67 733.82 C 971.67 719.75 969.45 707.91 965.75 697.54 C 961.30 686.44 955.38 677.56 947.24 671.63 C 942.06 666.45 933.91 664.23 925.77 664.23 Z" fill="url(#paint8_linear_1707_18860)" fill-rule="nonzero" node-id="175" stroke="none" target-height="150.29004" target-width="145.10999" target-x="826.56" target-y="664.23"></path><path d="M 986.48 801.37 C 986.48 809.11 994.89 813.91 1001.56 809.98 L 1088.17 758.86 C 1091.21 757.06 1093.08 753.78 1093.08 750.25 L 1093.08 744.39 C 1093.08 736.69 1084.76 731.88 1078.09 735.72 L 991.48 785.64 C 988.38 787.43 986.48 790.73 986.48 794.31 L 986.48 801.37 Z" fill="#ffffff" fill-rule="nonzero" node-id="177" stroke="none" target-height="82.02997" target-width="106.599976" target-x="986.48" target-y="731.88"></path><path d="M 986.48 745.55 C 986.48 750.49 991.83 753.56 996.09 751.06 L 1276.49 586.79 C 1278.45 585.64 1279.65 583.54 1279.65 581.28 L 1279.65 581.28 C 1279.65 576.34 1274.29 573.27 1270.03 575.76 L 989.63 740.04 C 987.68 741.18 986.48 743.28 986.48 745.55 L 986.48 745.55 Z" fill="#ffffff" fill-rule="nonzero" node-id="179" stroke="none" target-height="180.28998" target-width="293.17004" target-x="986.48" target-y="573.27"></path><path d="M 986.48 703.35 C 986.48 708.29 991.83 711.36 996.09 708.86 L 1276.49 544.59 C 1278.45 543.44 1279.65 541.35 1279.65 539.08 L 1279.65 539.08 C 1279.65 534.14 1274.29 531.07 1270.03 533.57 L 989.63 697.84 C 987.68 698.99 986.48 701.08 986.48 703.35 L 986.48 703.35 Z" fill="#ffffff" fill-rule="nonzero" node-id="181" stroke="none" target-height="180.28998" target-width="293.17004" target-x="986.48" target-y="531.07"></path><path d="M 986.48 661.33 C 986.48 666.51 992.10 669.73 996.57 667.10 L 1276.50 502.39 C 1278.45 501.24 1279.65 499.15 1279.65 496.88 L 1279.65 496.88 C 1279.65 491.94 1274.29 488.87 1270.03 491.37 L 989.79 655.55 C 987.74 656.75 986.48 658.95 986.48 661.33 L 986.48 661.33 Z" fill="#ffffff" fill-rule="nonzero" node-id="183" stroke="none" target-height="180.85999" target-width="293.17004" target-x="986.48" target-y="488.87"></path><path d="M 986.48 619.13 C 986.48 624.31 992.10 627.51 996.55 624.88 L 1130.07 545.99 C 1131.92 544.89 1133.06 542.90 1133.06 540.74 L 1133.06 540.74 C 1133.06 536.04 1127.97 533.11 1123.91 535.47 L 989.80 613.36 C 987.74 614.55 986.48 616.75 986.48 619.13 L 986.48 619.13 Z" fill="#ffffff" fill-rule="nonzero" node-id="185" stroke="none" target-height="94.400024" target-width="146.58008" target-x="986.48" target-y="533.11"></path><path d="M 703.57 382.06 L 270.00 628.00 L 270.00 586.62 C 270.00 575.53 277.95 562.05 287.75 556.47 L 954.25 178.40 C 964.06 172.83 972.00 177.28 972.00 188.37 L 972.00 229.74" fill="url(#paint9_linear_1707_18860)" fill-rule="nonzero" node-id="187" stroke="none" target-height="455.16998" target-width="702" target-x="270" target-y="172.83"></path><path d="M 316.21 572.66 C 316.21 578.75 311.91 586.17 306.61 589.24 C 301.31 592.31 297.00 589.85 297.00 583.78 C 297.00 577.70 301.30 570.27 306.61 567.21 C 311.92 564.15 316.21 566.57 316.21 572.66 Z" fill="#ffffff" fill-rule="nonzero" node-id="189" stroke="none" target-height="28.159973" target-width="19.209991" target-x="297" target-y="564.15"></path><path d="M 341.22 558.22 C 341.22 564.31 336.91 571.73 331.61 574.80 C 326.31 577.87 322.00 575.41 322.00 569.34 C 322.00 563.26 326.30 555.82 331.61 552.76 C 336.93 549.70 341.22 552.13 341.22 558.22 Z" fill="#ffffff" fill-rule="nonzero" node-id="191" stroke="none" target-height="28.169983" target-width="19.220001" target-x="322" target-y="549.7"></path><path d="M 366.23 543.78 C 366.23 549.88 361.92 557.30 356.62 560.37 C 351.32 563.42 347.00 560.98 347.00 554.90 C 347.00 548.82 351.31 541.38 356.62 538.32 C 361.93 535.26 366.23 537.70 366.23 543.78 Z" fill="#ffffff" fill-rule="nonzero" node-id="193" stroke="none" target-height="28.159973" target-width="19.230011" target-x="347" target-y="535.26"></path><path d="M 122.36 775.49 L 376.95 629.45 C 380.36 627.17 385.47 627.74 388.88 630.01 L 395.13 633.99 L 391.15 776.63 C 391.15 784.58 388.31 787.99 380.93 791.97 L 283.19 846.52 L 219.54 886.30 L 128.62 940.86 L 118.96 940.29 C 114.41 939.72 111.00 936.31 111.00 931.76 L 111.00 794.81 C 111.00 786.86 114.98 779.47 122.36 775.49 Z" fill="url(#paint10_linear_1707_18860)" fill-opacity="0.8" fill-rule="nonzero" node-id="195" stroke="none" target-height="313.69" target-width="284.13" target-x="111" target-y="627.17"></path><path d="M 428.25 663.22 L 428.25 791.65 C 428.25 799.61 424.27 806.99 416.88 810.97 L 316.30 868.93 L 293.57 916.10 C 291.86 922.35 284.48 925.76 278.79 922.92 L 257.77 903.03 L 165.14 958.15 C 156.62 963.27 146.39 957.01 146.39 947.36 L 146.39 817.22 C 146.39 809.27 150.37 801.88 157.75 797.90 L 410.06 652.42 C 417.45 647.31 428.25 653.56 428.25 663.22 Z" fill="url(#paint11_linear_1707_18860)" fill-rule="nonzero" node-id="197" stroke="none" target-height="315.96002" target-width="281.86" target-x="146.39" target-y="647.31"></path><path d="M 174.09 826.80 C 174.09 832.48 180.25 836.04 185.17 833.19 L 390.89 714.43 C 393.18 713.11 394.58 710.67 394.58 708.03 L 394.58 708.03 C 394.58 702.35 388.43 698.80 383.51 701.64 L 177.79 820.41 C 175.50 821.73 174.09 824.16 174.09 826.80 L 174.09 826.80 Z" fill="#ffffff" fill-rule="nonzero" node-id="199" stroke="none" target-height="137.23999" target-width="220.48999" target-x="174.09" target-y="698.8"></path><path d="M 174.09 866.41 C 174.09 871.91 180.04 875.34 184.80 872.60 L 391.01 753.54 C 393.22 752.27 394.58 749.91 394.58 747.36 L 394.58 747.36 C 394.58 741.87 388.64 738.44 383.88 741.18 L 177.66 860.24 C 175.46 861.51 174.09 863.87 174.09 866.41 L 174.09 866.41 Z" fill="#ffffff" fill-rule="nonzero" node-id="201" stroke="none" target-height="136.90002" target-width="220.48999" target-x="174.09" target-y="738.44"></path><path d="M 287.75 841.24 C 287.75 846.91 293.90 850.46 298.81 847.61 L 391.02 794.15 C 393.22 792.87 394.58 790.51 394.58 787.96 L 394.58 787.96 C 394.58 782.46 388.63 779.02 383.87 781.76 L 291.44 834.85 C 289.16 836.16 287.75 838.60 287.75 841.24 L 287.75 841.24 Z" fill="#ffffff" fill-rule="nonzero" node-id="203" stroke="none" target-height="71.44" target-width="106.82999" target-x="287.75" target-y="779.02"></path></svg>