<?xml version="1.0" standalone="no"?><!DOCTYPE svg PUBLIC "-//W3C//DTD SVG 1.1//EN" "http://www.w3.org/Graphics/SVG/1.1/DTD/svg11.dtd"><svg height="1024" node-id="1" sillyvg="true" template-height="1024" template-width="1024" version="1.1" viewBox="0 0 1024 1024" width="1024" xmlns="http://www.w3.org/2000/svg" xmlns:xlink="http://www.w3.org/1999/xlink"><defs node-id="63"><linearGradient gradientUnits="objectBoundingBox" id="linearGradient-1" node-id="5" spreadMethod="pad" x1="0.5649766" x2="0.5649766" y1="0" y2="1.0557306"><stop offset="0" stop-color="#f6f6f6"></stop><stop offset="1" stop-color="#ffffff"></stop></linearGradient><linearGradient gradientUnits="objectBoundingBox" id="linearGradient-2" node-id="8" spreadMethod="pad" x1="0.5649765" x2="0.5649765" y1="0" y2="1.0557305"><stop offset="0" stop-color="#f6f6f6"></stop><stop offset="1" stop-color="#ffffff"></stop></linearGradient><linearGradient gradientUnits="objectBoundingBox" id="linearGradient-3" node-id="11" spreadMethod="pad" x1="0.5649766" x2="0.5649766" y1="0" y2="1.0557306"><stop offset="0" stop-color="#f6f6f6"></stop><stop offset="1" stop-color="#ffffff"></stop></linearGradient><linearGradient gradientUnits="objectBoundingBox" id="linearGradient-4" node-id="14" spreadMethod="pad" x1="0.5649766" x2="0.5649766" y1="0" y2="1.0557306"><stop offset="0" stop-color="#fbefef"></stop><stop offset="1" stop-color="#ffffff"></stop></linearGradient><linearGradient gradientUnits="objectBoundingBox" id="linearGradient-5" node-id="17" spreadMethod="pad" x1="0.5649765" x2="0.5649765" y1="0" y2="0.49222052"><stop offset="0" stop-color="#f6f6f6"></stop><stop offset="1" stop-color="#ffffff"></stop></linearGradient><linearGradient gradientUnits="objectBoundingBox" id="linearGradient-6" node-id="20" spreadMethod="pad" x1="0.56497645" x2="0.56497645" y1="0" y2="1.0557303"><stop offset="0" stop-color="#f6f6f6"></stop><stop offset="1" stop-color="#ffffff"></stop></linearGradient><linearGradient gradientUnits="objectBoundingBox" id="linearGradient-7" node-id="23" spreadMethod="pad" x1="0.56497645" x2="0.56497645" y1="0" y2="1.0557303"><stop offset="0" stop-color="#f6f6f6"></stop><stop offset="0.4662369" stop-color="#ffffff"></stop></linearGradient><linearGradient gradientUnits="objectBoundingBox" id="linearGradient-8" node-id="26" spreadMethod="pad" x1="0.5649766" x2="0.5649766" y1="0" y2="1.0557306"><stop offset="0" stop-color="#f6f6f6"></stop><stop offset="1" stop-color="#ffffff"></stop></linearGradient><linearGradient gradientUnits="objectBoundingBox" id="linearGradient-9" node-id="29" spreadMethod="pad" x1="0.5649766" x2="0.5649766" y1="0" y2="1.0557306"><stop offset="0" stop-color="#f6f6f6"></stop><stop offset="1" stop-color="#ffffff"></stop></linearGradient><linearGradient gradientUnits="objectBoundingBox" id="linearGradient-10" node-id="32" spreadMethod="pad" x1="0.5649766" x2="0.5649766" y1="0" y2="1.0557306"><stop offset="0" stop-color="#f6f6f6"></stop><stop offset="1" stop-color="#ffffff"></stop></linearGradient><linearGradient gradientUnits="objectBoundingBox" id="linearGradient-11" node-id="35" spreadMethod="pad" x1="0.5316942" x2="0.5316942" y1="0.99999994" y2="0.02809334"><stop offset="0" stop-color="#eaecf1"></stop><stop offset="1" stop-color="#f9f9f9"></stop></linearGradient></defs><path d="M 810.50 526.42 L 810.50 514.58" fill="#b5c1dd" fill-rule="evenodd" id="Fill-9备份" node-id="39" stroke="none" target-height="11.839966" target-width="0" target-x="810.5" target-y="514.58"></path><g node-id="130"><g node-id="132"><path d="M 725.47 637.70 L 725.47 622.28" fill="#b5c1dd" fill-rule="evenodd" group-id="1,3" id="Fill-11" node-id="42" stroke="none" target-height="15.419983" target-width="0" target-x="725.47" target-y="622.28"></path><g node-id="137"><path d="M 737.13 503.95 L 756.70 591.04 L 757.31 595.07 L 757.39 598.97 L 756.95 602.79 L 756.02 606.52 L 754.65 610.04 L 752.83 613.36 L 750.60 616.43 L 748.01 619.17 L 745.04 621.61 L 741.78 623.64 L 738.21 625.24 L 734.31 626.41 L 730.38 627.01 L 726.44 627.09 L 722.52 626.65 L 718.67 625.67 L 656.87 605.57 L 653.10 604.05 L 649.70 602.12 L 646.64 599.80 L 643.91 597.09 L 641.59 594.12 L 639.65 590.85 L 638.15 587.37 L 637.11 583.75 L 636.53 579.95 L 636.45 576.10 L 636.90 572.22 L 637.89 568.27 L 639.36 564.59 L 641.30 561.16 L 643.68 558.03 L 646.47 555.21 L 713.45 496.26 L 715.59 494.69 L 717.85 493.59 L 720.24 492.91 L 722.71 492.65 L 725.14 492.80 L 727.56 493.38 L 729.85 494.35 L 731.94 495.74 L 733.87 497.56 L 735.32 499.51 L 736.40 501.63 L 737.13 503.95 Z" fill="url(#linearGradient-1)" fill-rule="evenodd" group-id="1,3,8" id="路径-30" node-id="43" stroke="none" target-height="134.44003" target-width="120.94" target-x="636.45" target-y="492.65"></path></g><g node-id="138"><path d="M 182.34 594.88 L 219.65 631.70 L 222.35 634.76 L 224.52 638.00 L 226.22 641.45 L 227.45 645.09 L 228.19 648.79 L 228.46 652.57 L 228.24 656.35 L 227.55 660.06 L 226.36 663.72 L 224.72 667.19 L 222.58 670.46 L 219.93 673.55 L 216.99 676.16 L 213.75 678.34 L 210.25 680.08 L 206.53 681.35 L 180.51 688.33 L 176.51 689.11 L 172.61 689.35 L 168.78 689.07 L 165.02 688.29 L 161.45 687.06 L 158.05 685.38 L 154.90 683.28 L 152.05 680.81 L 149.49 677.94 L 147.33 674.76 L 145.58 671.27 L 144.26 667.41 L 143.49 663.55 L 143.25 659.65 L 143.52 655.75 L 144.31 651.89 L 158.23 601.34 L 159.16 598.86 L 160.44 596.70 L 162.07 594.82 L 163.99 593.24 L 166.11 592.04 L 168.45 591.19 L 170.90 590.76 L 173.41 590.76 L 176.02 591.23 L 178.34 592.09 L 180.44 593.30 L 182.34 594.88 Z" fill="url(#linearGradient-2)" fill-rule="evenodd" group-id="1,3,9" id="路径-30备份" node-id="44" stroke="none" target-height="98.589966" target-width="85.21001" target-x="143.25" target-y="590.76"></path></g><g node-id="139"><path d="M 896.96 700.89 L 898.01 701.34 L 898.82 701.41 L 899.47 701.19 L 899.97 700.72 L 900.29 699.97 L 900.40 698.84 L 897.09 627.48 L 896.74 625.69 L 895.89 623.84 L 894.67 622.21 L 893.27 621.06 L 801.95 566.12 L 801.26 566.24 L 798.50 567.88 L 791.07 573.36 L 775.20 586.02 L 746.02 610.27 L 746.77 611.01 L 752.32 614.79 L 770.64 626.14 L 813.59 651.85 L 896.96 700.89 Z" fill="url(#linearGradient-3)" fill-rule="evenodd" group-id="1,3,10" id="Fill-41" node-id="45" stroke="none" target-height="135.28998" target-width="154.38" target-x="746.02" target-y="566.12"></path></g><path d="M 540.94 503.20 L 511.91 503.20 L 510.35 503.36 L 509.38 503.69 L 508.62 504.18 L 508.23 504.60 L 507.95 505.09 L 506.51 507.47 L 502.88 513.45 L 498.11 521.28 L 493.26 529.22 L 489.37 535.52 L 487.48 538.44 L 486.67 539.74 L 486.14 541.14 L 485.70 543.68 L 485.66 544.80 L 485.62 547.08 L 485.53 552.58 L 485.47 559.30 L 485.50 565.24 L 485.69 568.41 L 486.05 569.24 L 486.55 569.85 L 487.64 570.60 L 488.18 570.82 L 540.94 570.82 L 540.94 568.41 L 540.94 503.20 Z" fill="url(#linearGradient-4)" fill-rule="evenodd" group-id="1,3" id="Fill-50" node-id="46" stroke="none" target-height="67.619995" target-width="55.47" target-x="485.47" target-y="503.2"></path><path d="M 361.25 583.93 L 350.95 525.50 L 324.94 530.09 L 335.33 589.01 L 335.44 588.99 L 336.14 591.21 L 337.15 593.18 L 338.48 594.94 L 340.08 596.45 L 341.88 597.65 L 343.89 598.57 L 346.03 599.14 L 348.26 599.33 L 350.62 599.13 L 352.95 598.49 L 355.03 597.51 L 356.88 596.20 L 358.48 594.59 L 359.77 592.78 L 360.74 590.74 L 361.35 588.56 L 361.57 586.30 L 361.37 583.91 L 361.25 583.93 Z" fill="url(#linearGradient-5)" fill-rule="evenodd" group-id="1,3,11" id="Fill-20" node-id="48" stroke="none" target-height="73.83002" target-width="36.630005" target-x="324.94" target-y="525.5"></path><path d="M 387.39 579.32 L 377.08 520.89 L 351.07 525.48 L 361.46 584.40 L 361.58 584.38 L 362.28 586.60 L 363.29 588.57 L 364.62 590.33 L 366.22 591.84 L 368.01 593.05 L 370.03 593.96 L 372.16 594.53 L 374.39 594.72 L 376.74 594.52 L 379.09 593.88 L 381.17 592.90 L 383.02 591.59 L 384.62 589.98 L 385.90 588.17 L 386.87 586.13 L 387.49 583.96 L 387.70 581.69 L 387.50 579.30 L 387.39 579.32 Z" fill="url(#linearGradient-6)" fill-rule="evenodd" group-id="1,3,11" id="Fill-21" node-id="49" stroke="none" target-height="73.829956" target-width="36.630005" target-x="351.07" target-y="520.89"></path><path d="M 413.53 574.71 L 403.22 516.28 L 377.20 520.87 L 387.59 579.80 L 387.71 579.78 L 388.41 581.99 L 389.42 583.96 L 390.75 585.72 L 392.35 587.23 L 394.14 588.44 L 396.16 589.35 L 398.30 589.92 L 400.52 590.11 L 402.88 589.91 L 405.22 589.27 L 407.30 588.30 L 409.15 586.98 L 410.75 585.37 L 412.03 583.56 L 413.00 581.52 L 413.61 579.35 L 413.83 577.08 L 413.63 574.69 L 413.53 574.71 Z" fill="url(#linearGradient-7)" fill-rule="evenodd" group-id="1,3,11" id="Fill-22" node-id="50" stroke="none" target-height="73.829956" target-width="36.629974" target-x="377.2" target-y="516.28"></path><path d="M 437.27 570.52 L 426.97 512.10 L 400.96 516.68 L 411.35 575.61 L 411.46 575.59 L 412.16 577.81 L 413.17 579.78 L 414.49 581.53 L 416.10 583.05 L 417.89 584.25 L 419.91 585.17 L 422.04 585.73 L 424.27 585.92 L 426.64 585.72 L 428.97 585.08 L 431.05 584.11 L 432.90 582.80 L 434.50 581.19 L 435.78 579.37 L 436.76 577.33 L 437.37 575.16 L 437.58 572.90 L 437.39 570.50 L 437.27 570.52 Z" fill="url(#linearGradient-6)" fill-rule="evenodd" group-id="1,3,11" id="Fill-23" node-id="51" stroke="none" target-height="73.82001" target-width="36.619995" target-x="400.96" target-y="512.1"></path><path d="M 463.39 565.92 L 453.09 507.49 L 427.09 512.07 L 437.48 571.00 L 437.59 570.98 L 438.29 573.20 L 439.31 575.17 L 440.63 576.92 L 442.23 578.44 L 444.03 579.64 L 446.04 580.56 L 448.18 581.13 L 450.40 581.31 L 452.76 581.12 L 455.10 580.48 L 457.18 579.50 L 459.03 578.19 L 460.63 576.58 L 461.91 574.77 L 462.89 572.73 L 463.50 570.55 L 463.71 568.29 L 463.52 565.89 L 463.39 565.92 Z" fill="url(#linearGradient-7)" fill-rule="evenodd" group-id="1,3,11" id="Fill-24" node-id="52" stroke="none" target-height="73.82001" target-width="36.619995" target-x="427.09" target-y="507.49"></path><path d="M 540.94 527.35 L 630.19 527.35 L 630.19 578.06 L 540.94 578.06 Z" fill="url(#linearGradient-8)" fill-rule="evenodd" group-id="1,3" id="矩形" node-id="53" stroke="none" target-height="50.710022" target-width="89.25" target-x="540.94" target-y="527.35"></path><path d="M 214.63 580.37 L 297.94 548.35 L 323.88 615.99 L 240.56 648.01 Z" fill="url(#linearGradient-9)" fill-rule="evenodd" group-id="1,3,12" id="矩形备份" node-id="54" stroke="none" target-height="99.660034" target-width="109.25" target-x="214.63" target-y="548.35"></path></g><path d="M 32.00 793.00 L 47.15 776.33 L 62.42 760.40 L 77.79 745.20 L 93.28 730.71 L 108.88 716.91 L 124.61 703.78 L 140.45 691.32 L 156.42 679.50 L 172.52 668.32 L 188.76 657.75 L 205.13 647.80 L 221.65 638.45 L 238.32 629.68 L 255.15 621.50 L 272.14 613.89 L 289.30 606.85 L 306.65 600.37 L 324.19 594.45 L 341.92 589.09 L 359.86 584.29 L 378.01 580.04 L 396.39 576.34 L 415.01 573.20 L 433.87 570.62 L 452.99 568.61 L 472.38 567.16 L 492.04 566.28 L 512.00 565.99 L 531.96 566.28 L 551.62 567.16 L 571.01 568.61 L 590.13 570.62 L 608.99 573.20 L 627.61 576.34 L 645.99 580.04 L 664.14 584.29 L 682.08 589.09 L 699.81 594.45 L 717.35 600.37 L 734.70 606.85 L 751.86 613.89 L 768.85 621.50 L 785.68 629.68 L 802.35 638.45 L 818.87 647.80 L 835.24 657.75 L 851.48 668.32 L 867.58 679.50 L 883.55 691.32 L 899.39 703.78 L 915.12 716.91 L 930.72 730.71 L 946.21 745.20 L 961.58 760.40 L 976.85 776.33 L 992.00 793.00" fill="url(#linearGradient-10)" fill-rule="evenodd" group-id="1" id="路径-34备份" node-id="55" stroke="none" target-height="227.01001" target-width="960" target-x="32" target-y="565.99"></path></g><g node-id="131"><g node-id="133"><path d="M 366.96 346.42 L 368.62 343.20 L 370.57 340.29 L 372.80 337.67 L 375.30 335.32 L 378.00 333.28 L 380.90 331.56 L 382.66 330.32 L 384.67 329.35 L 546.79 267.00 L 550.87 265.75 L 554.90 265.07 L 558.93 264.94 L 562.94 265.34 L 566.79 266.23 L 570.51 267.61 L 574.03 269.45 L 577.27 271.71 L 580.26 274.42 L 582.86 277.50 L 585.06 280.95 L 586.86 284.82 L 586.88 284.85 L 586.88 284.85 L 648.42 445.48 L 648.91 447.00 L 649.24 448.51 L 650.34 452.23 L 650.96 456.05 L 651.11 459.99 L 650.75 463.91 L 649.87 467.82 L 648.43 471.74 L 538.14 719.44 L 535.89 723.69 L 533.22 727.44 L 530.11 730.74 L 526.60 733.61 L 522.83 735.97 L 518.76 737.83 L 514.50 739.17 L 510.11 739.94 L 505.58 740.16 L 501.07 739.78 L 496.57 738.78 L 492.05 737.13 L 274.36 640.21 L 270.12 637.96 L 266.37 635.28 L 263.07 632.18 L 260.19 628.67 L 257.84 624.90 L 255.97 620.83 L 254.64 616.56 L 253.87 612.18 L 253.65 607.65 L 254.03 603.14 L 255.03 598.64 L 256.67 594.12 L 366.96 346.42 Z" fill="#e1e3e9" fill-rule="evenodd" group-id="2,4" id="形状结合" node-id="57" stroke="none" target-height="475.21997" target-width="397.46" target-x="253.65" target-y="264.94"></path></g><g node-id="134"><path d="M 516.61 325.87 L 519.46 323.35 L 522.47 321.26 L 525.65 319.58 L 529.00 318.28 L 532.42 317.39 L 535.92 316.89 L 537.45 316.62 L 539.06 316.52 L 539.08 316.52 L 539.08 316.52 L 717.04 316.63 L 721.30 316.93 L 725.31 317.75 L 729.10 319.07 L 732.70 320.88 L 735.97 323.09 L 738.95 325.72 L 741.58 328.69 L 743.78 331.97 L 745.59 335.56 L 746.92 339.36 L 747.74 343.37 L 748.04 347.63 L 748.15 523.91 L 748.06 525.52 L 747.90 529.62 L 747.20 533.64 L 745.95 537.61 L 744.19 541.37 L 741.88 544.91 L 738.99 548.24 L 542.94 744.29 L 539.32 747.44 L 535.48 749.99 L 531.40 751.95 L 527.09 753.38 L 522.72 754.23 L 518.26 754.51 L 513.80 754.23 L 509.43 753.38 L 505.12 751.95 L 501.04 749.98 L 497.20 747.44 L 493.58 744.29 L 320.57 571.28 L 317.41 567.65 L 314.87 563.81 L 312.90 559.73 L 311.48 555.43 L 310.63 551.06 L 310.34 546.60 L 310.63 542.13 L 311.48 537.77 L 312.90 533.46 L 314.87 529.38 L 317.41 525.54 L 320.57 521.91 L 516.61 325.87 Z" fill="url(#linearGradient-11)" fill-opacity="0.82" fill-rule="evenodd" group-id="2,5" id="形状结合" node-id="58" stroke="none" target-height="437.99002" target-width="437.81003" target-x="310.34" target-y="316.52"></path></g><g node-id="135"><path d="M 472.13 666.99 L 517.68 709.79 L 590.16 644.67" fill="none" group-id="2,6" id="路径-33备份" node-id="59" stroke="#ffffff" stroke-linecap="round" stroke-width="17.454546" target-height="65.119995" target-width="118.02997" target-x="472.13" target-y="644.67"></path></g><path d="M 713.37 386.78 L 713.06 391.38 L 712.18 395.71 L 710.74 399.81 L 708.79 403.69 L 706.40 407.23 L 703.57 410.44 L 700.35 413.27 L 696.82 415.66 L 692.93 417.61 L 688.83 419.04 L 684.50 419.92 L 679.90 420.24 L 675.30 419.92 L 670.98 419.04 L 666.87 417.61 L 662.99 415.66 L 659.45 413.27 L 656.23 410.44 L 653.40 407.23 L 651.01 403.69 L 649.06 399.81 L 647.63 395.71 L 646.75 391.38 L 646.43 386.78 L 646.75 382.19 L 647.63 377.86 L 649.06 373.76 L 651.01 369.88 L 653.40 366.34 L 656.23 363.13 L 659.45 360.30 L 662.99 357.91 L 666.87 355.96 L 670.98 354.53 L 675.30 353.65 L 679.90 353.33 L 684.50 353.65 L 688.83 354.53 L 692.93 355.96 L 696.82 357.91 L 700.35 360.30 L 703.57 363.13 L 706.40 366.34 L 708.79 369.88 L 710.74 373.76 L 712.18 377.86 L 713.06 382.19 L 713.37 386.78 Z" fill="#ffffff" fill-rule="evenodd" group-id="2" id="椭圆形" node-id="60" stroke="none" target-height="66.91" target-width="66.94" target-x="646.43" target-y="353.33"></path><path d="M 682.15 384.94 L 688.39 387.10 L 694.73 388.63 L 701.19 389.54 L 707.71 389.84 L 714.20 389.51 L 720.68 388.55 L 725.47 387.43 L 730.17 385.97 L 734.78 384.15 L 739.33 381.97 L 743.68 379.47 L 747.87 376.61 L 751.92 373.39 L 755.82 369.79 L 759.65 365.62 L 763.05 361.29 L 766.03 356.80 L 768.61 352.13 L 770.82 347.25 L 772.63 342.29 L 774.03 337.26 L 775.04 332.12 L 775.66 326.92 L 775.88 321.73 L 775.70 316.54 L 775.12 311.35 L 774.14 306.21 L 772.77 301.19 L 771.00 296.25 L 768.83 291.38 L 766.28 286.73 L 763.33 282.26 L 759.96 277.96 L 756.16 273.82 L 752.02 270.01 L 747.71 266.65 L 743.24 263.70 L 738.58 261.16 L 733.72 258.98 L 728.78 257.21 L 723.75 255.84 L 718.61 254.87 L 713.41 254.29 L 708.22 254.11 L 703.03 254.33 L 697.83 254.94 L 692.69 255.95 L 687.65 257.35 L 682.69 259.16 L 677.81 261.37 L 673.13 263.95 L 668.64 266.93 L 664.31 270.33 L 660.14 274.16 L 655.38 279.20 L 651.45 284.03 L 649.12 287.38 L 647.09 290.81 L 645.34 294.33 L 643.88 297.97 L 642.65 301.90 L 641.67 306.13" fill="none" group-id="2,7" id="路径" node-id="61" stroke="#a8afbd" stroke-linecap="round" stroke-width="17.454544" target-height="135.73" target-width="134.21002" target-x="641.67" target-y="254.11"></path></g></svg>